<svg xmlns="http://www.w3.org/2000/svg" viewBox="0 0 256 256" fill="none">
  <path d="M72 112V86C72 71.64 83.64 60 98 60H122" stroke="#FFFFFF" stroke-width="24" stroke-linecap="round" stroke-linejoin="round"/>
  <path d="M134 60H158C172.36 60 184 71.64 184 86V122" stroke="#8B5CF6" stroke-width="24" stroke-linecap="round" stroke-linejoin="round"/>
  <path d="M184 134V158C184 172.36 172.36 184 158 184H134" stroke="#FFFFFF" stroke-width="24" stroke-linecap="round" stroke-linejoin="round"/>
  <path d="M122 184H98C83.64 184 72 172.36 72 158V134" stroke="#8B5CF6" stroke-width="24" stroke-linecap="round" stroke-linejoin="round"/>

  <path d="M108 108L88 128L108 148" stroke="#FFFFFF" stroke-width="14" stroke-linecap="round" stroke-linejoin="round"/>
  <path d="M138 96L120 160" stroke="#FFFFFF" stroke-width="14" stroke-linecap="round"/>
  <path d="M150 108L170 128L150 148" stroke="#FFFFFF" stroke-width="14" stroke-linecap="round" stroke-linejoin="round"/>
  <rect x="146" y="144" width="8" height="18" rx="4" fill="#8B5CF6"/>
</svg>
